<svg width="3858" height="2728" xmlns="http://www.w3.org/2000/svg" xmlns:xlink="http://www.w3.org/1999/xlink" xml:space="preserve" overflow="hidden"><g>
<path d="M1527.86 0 308.27 0 299.08 15.1549 289.19 31.6363 279.409 48.1083 269.736 64.5705 260.171 81.023 250.714 97.465 241.364 113.897 232.12 130.317 222.983 146.727 213.951 163.125 205.023 179.512 196.201 195.886 187.482 212.248 178.867 228.598 170.354 244.935 161.945 261.259 153.636 277.569 145.43 293.865 137.325 310.148 129.32 326.416 121.414 342.669 113.609 358.908 105.902 375.13 98.2934 391.338 90.7828 407.53 83.3694 423.706 76.0531 439.866 68.8331 456.008 61.7091 472.134 54.68 488.242 47.7463 504.333 40.9067 520.406 34.161 536.461 27.5084 552.497 20.9489 568.515 14.4815 584.514 8.10606 600.493 1.79417 616.524 0 621.142 0 2727.89 127.839 2727.89 133.437 2710.94 139.212 2693.57 145.019 2676.21 150.858 2658.86 156.729 2641.53 162.631 2624.2 168.565 2606.89 174.531 2589.59 180.528 2572.31 186.558 2555.03 192.618 2537.77 198.711 2520.52 204.835 2503.29 210.991 2486.06 217.178 2468.85 223.396 2451.65 229.647 2434.47 235.928 2417.29 242.241 2400.13 248.586 2382.99 254.962 2365.85 261.37 2348.73 267.808 2331.62 274.278 2314.53 280.779 2297.45 287.311 2280.38 293.875 2263.32 300.47 2246.28 307.096 2229.25 313.753 2212.24 320.442 2195.24 327.161 2178.25 333.912 2161.27 340.693 2144.31 347.506 2127.36 354.35 2110.43 361.224 2093.51 368.129 2076.6 375.066 2059.71 382.033 2042.83 389.031 2025.96 396.06 2009.11 403.12 1992.27 410.211 1975.45 417.332 1958.64 424.484 1941.84 431.667 1925.06 438.88 1908.29 446.124 1891.54 453.399 1874.8 460.704 1858.08 468.04 1841.37 475.406 1824.67 482.803 1807.99 490.231 1791.32 497.689 1774.67 505.177 1758.03 512.695 1741.4 520.245 1724.8 527.824 1708.2 535.434 1691.62 543.074 1675.06 550.744 1658.51 558.445 1641.97 566.175 1625.45 573.936 1608.94 581.728 1592.45 589.549 1575.98 605.282 1543.07 621.136 1510.22 637.109 1477.44 653.202 1444.71 669.415 1412.05 685.747 1379.45 702.199 1346.91 718.769 1314.44 735.458 1282.03 752.266 1249.68 769.193 1217.39 786.237 1185.17 803.4 1153.01 820.68 1120.92 838.077 1088.89 855.592 1056.93 873.224 1025.03 890.973 993.204 908.839 961.44 926.821 929.743 944.919 898.114 963.134 866.551 981.464 835.057 999.91 803.631 1018.47 772.273 1037.15 740.984 1055.94 709.764 1074.85 678.614 1093.87 647.534 1113.05 616.453 1141.92 570.142 1171.09 523.919 1200.52 477.859 1230.2 431.96 1260.14 386.225 1290.33 340.655 1320.77 295.251 1351.47 250.013 1382.41 204.945 1413.61 160.045 1445.06 115.316 1476.75 70.7591 1508.69 26.3754 1527.86 0Z" fill="#BD3A49" fill-rule="evenodd"/>
<path d="M3242.09 1.00436 2055.02 1.00436 2046.46 14.7539 1990.71 83.5018 1979.64 101.835 1935.65 156.833 1924.72 175.166 1881.3 230.164 1870.51 248.497 1827.65 303.495 1817 321.828 1785.24 363.077 1774.7 381.409 1753.73 408.909 1743.28 427.241 1712.12 468.49 1701.79 486.823 1681.22 514.322 1670.98 532.655 1640.42 573.904 1630.29 592.236 1610.13 619.735 1600.09 638.068 1580.09 665.567 1570.14 683.9 1550.33 711.399 1540.46 729.732 1530.62 743.482 1520.82 761.814 1501.29 789.314 1491.58 807.646 1472.23 835.146 1462.61 853.478 1453 867.228 1443.44 885.561 1424.39 913.06 1414.91 931.393 1405.46 945.142 1396.04 963.475 1377.29 990.974 1367.96 1009.31 1358.66 1023.06 1349.39 1041.39 1340.15 1055.14 1330.94 1073.47 1321.76 1087.22 1312.61 1105.55 1294.4 1133.05 1285.34 1151.39 1276.31 1165.14 1267.31 1183.47 1258.35 1197.22 1249.4 1215.55 1240.5 1229.3 1231.62 1247.63 1222.77 1261.38 1213.96 1279.72 1205.18 1293.46 1196.42 1311.8 1187.7 1325.55 1179 1343.88 1170.34 1357.63 1161.71 1375.96 1153.11 1389.71 1144.54 1408.04 1136 1421.79 1127.49 1440.13 1119.01 1453.88 1110.57 1472.21 1102.15 1485.96 1085.41 1522.62 1077.09 1536.37 1068.8 1554.71 1060.54 1568.46 1052.31 1586.79 1044.12 1600.54 1035.95 1618.87 1027.82 1632.62 1011.64 1669.29 1003.6 1683.04 995.59 1701.37 987.611 1715.12 971.75 1751.78 963.867 1765.53 956.012 1783.87 948.194 1797.62 932.649 1834.28 924.923 1848.03 917.233 1866.36 909.57 1880.11 901.94 1898.45 894.342 1916.78 886.776 1930.53 879.241 1948.86 871.739 1967.19 864.274 1980.94 856.836 1999.28 849.43 2017.61 842.056 2031.36 834.715 2049.69 827.405 2063.44 820.128 2081.77 812.882 2100.11 805.669 2113.86 798.492 2132.19 791.343 2150.52 784.226 2164.27 777.145 2182.6 770.097 2200.94 763.076 2219.27 756.092 2233.02 749.14 2251.35 742.22 2269.69 735.332 2283.43 728.476 2301.77 721.652 2320.1 714.865 2333.85 708.11 2352.18 701.382 2370.52 694.692 2388.85 688.037 2402.6 681.41 2420.93 674.816 2439.26 668.258 2457.6 661.732 2471.35 655.238 2489.68 648.781 2508.01 642.351 2521.76 635.958 2540.09 629.597 2558.43 623.269 2576.76 616.976 2590.51 610.716 2608.84 604.488 2627.17 598.292 2645.51 592.133 2663.84 586.006 2677.59 579.911 2695.92 573.852 2714.26 568 2728 1534.85 2728 1541.16 2714.26 1547.81 2695.92 1554.5 2682.17 1561.22 2663.84 1567.99 2645.51 1574.78 2627.17 1581.62 2613.42 1588.49 2595.09 1595.39 2576.76 1602.33 2563.01 1609.31 2544.68 1616.32 2526.34 1623.37 2512.59 1630.45 2494.26 1637.57 2475.93 1644.72 2462.18 1651.91 2443.85 1659.14 2425.51 1666.39 2411.76 1673.69 2393.43 1681.02 2375.1 1688.39 2361.35 1695.79 2343.02 1703.23 2329.27 1710.7 2310.93 1718.2 2292.6 1725.75 2278.85 1733.32 2260.52 1740.93 2242.19 1748.58 2228.44 1756.26 2210.1 1763.98 2196.35 1771.73 2178.02 1779.52 2159.69 1787.34 2145.94 1795.19 2127.61 1803.09 2113.86 1811.01 2095.52 1818.97 2077.19 1826.96 2063.44 1834.99 2045.11 1843.06 2031.36 1851.15 2013.03 1859.28 1999.28 1867.46 1980.94 1875.65 1967.19 1892.16 1930.53 1900.47 1916.78 1908.81 1898.45 1917.18 1884.7 1925.58 1866.36 1934.03 1852.61 1942.5 1834.28 1951.01 1820.53 1959.56 1802.2 1968.13 1788.45 1976.74 1770.12 1985.39 1756.37 1994.07 1738.03 2002.78 1724.28 2011.53 1705.95 2020.31 1692.2 2029.12 1673.87 2037.97 1660.12 2046.85 1641.79 2055.77 1628.04 2064.72 1609.71 2082.72 1582.21 2091.77 1563.87 2100.85 1550.12 2109.97 1531.79 2119.12 1518.04 2128.3 1499.71 2146.77 1472.21 2156.05 1453.88 2165.37 1440.13 2174.72 1421.79 2193.52 1394.3 2202.97 1375.96 2212.45 1362.21 2221.97 1343.88 2241.1 1316.38 2250.71 1298.05 2260.36 1284.3 2270.04 1265.97 2289.5 1238.47 2299.28 1220.13 2318.93 1192.63 2328.8 1174.3 2348.66 1146.8 2358.63 1128.47 2378.67 1100.97 2388.74 1082.64 2419.15 1041.39 2429.35 1023.06 2449.85 995.557 2460.15 977.225 2491.23 935.976 2501.65 917.643 2533.12 876.394 2543.67 858.062 2575.52 816.813 2586.2 798.48 2629.24 743.482 2640.08 725.149 2683.74 670.151 2694.74 651.818 2750.18 583.07 2761.37 569.32 2772.57 550.988 2840.51 468.49 2863.4 440.991 2874.9 422.658 2944.49 340.161 3015.18 257.663 3086.97 175.166 3172.1 78.9186 3242.09 1.00436Z" fill="#EDEDED" fill-rule="evenodd"/>
<path d="M3857.96 1.00003 3819.42 1.00003 3811.32 10.1664 3784.95 37.6656 3771.82 46.832 3706.67 115.58 3693.74 124.746 3604.17 220.993 3591.5 230.16 3516.25 312.657 3442.2 395.155 3369.38 477.652 3297.79 560.15 3239.06 628.898 3181.19 697.645 3124.18 766.393 3112.88 784.726 3090.39 812.225 3034.75 880.973 3023.73 899.306 2969.13 968.054 2958.32 986.387 2947.54 1000.14 2904.76 1055.13 2894.15 1073.47 2852.07 1128.47 2841.64 1146.8 2810.55 1188.05 2800.25 1206.38 2769.58 1247.63 2759.43 1265.96 2729.18 1307.21 2719.16 1325.54 2699.24 1353.04 2689.33 1371.37 2669.62 1398.87 2659.82 1417.21 2640.31 1444.71 2630.62 1463.04 2611.33 1490.54 2601.74 1508.87 2582.66 1536.37 2573.18 1554.7 2554.31 1582.2 2544.93 1600.53 2526.28 1628.03 2517.01 1646.37 2507.77 1660.12 2498.56 1678.45 2480.26 1705.95 2471.17 1724.28 2462.11 1738.03 2453.08 1756.36 2435.14 1783.86 2426.22 1802.19 2417.34 1815.94 2408.49 1834.28 2399.68 1848.03 2390.9 1866.36 2382.17 1880.11 2373.46 1898.44 2356.16 1925.94 2347.56 1944.27 2339 1958.02 2330.48 1976.36 2321.99 1990.11 2313.53 2008.44 2305.11 2022.19 2296.73 2040.52 2288.39 2054.27 2280.08 2072.6 2271.81 2086.35 2263.57 2104.69 2255.36 2118.44 2247.2 2136.77 2239.07 2150.52 2230.97 2168.85 2222.91 2182.6 2214.89 2200.93 2206.9 2219.27 2198.96 2233.02 2191.04 2251.35 2183.17 2265.1 2175.32 2283.43 2167.52 2297.18 2159.75 2315.51 2152.02 2333.85 2144.32 2347.59 2136.65 2365.93 2129.03 2379.68 2121.44 2398.01 2113.89 2411.76 2106.38 2430.09 2098.9 2448.43 2091.45 2462.17 2084.05 2480.51 2076.68 2498.84 2069.34 2512.59 2062.05 2530.92 2054.78 2544.67 2047.56 2563.01 2040.37 2581.34 2033.22 2595.09 2026.1 2613.42 2019.03 2631.75 2011.98 2645.5 2004.98 2663.84 1998.01 2682.17 1991.08 2695.92 1984.18 2714.25 1977.7 2728 2975.16 2728 2982.41 2714.25 2990.31 2700.5 2998.26 2682.17 3006.25 2663.84 3014.28 2650.09 3022.34 2631.75 3030.45 2618 3038.6 2599.67 3046.79 2581.34 3055.02 2567.59 3063.29 2549.26 3071.61 2535.51 3079.96 2517.17 3088.35 2503.42 3096.79 2485.09 3105.25 2471.34 3113.77 2453.01 3122.32 2439.26 3130.91 2420.93 3139.55 2407.18 3148.22 2388.84 3156.93 2375.09 3165.68 2356.76 3174.47 2343.01 3183.3 2324.68 3192.18 2310.93 3201.09 2292.6 3210.04 2278.85 3219.03 2260.51 3228.06 2246.76 3237.13 2228.43 3246.24 2214.68 3255.38 2196.35 3264.57 2182.6 3273.8 2164.27 3292.37 2136.77 3301.71 2118.44 3311.09 2104.69 3320.51 2086.35 3329.97 2072.6 3339.47 2054.27 3358.59 2026.77 3368.2 2008.44 3377.86 1994.69 3387.55 1976.36 3407.06 1948.86 3416.86 1930.52 3436.6 1903.03 3446.52 1884.69 3466.49 1857.19 3476.52 1838.86 3496.72 1811.36 3506.87 1793.03 3527.29 1765.53 3537.56 1747.2 3558.21 1719.7 3568.59 1701.36 3599.96 1660.12 3610.5 1641.78 3642.32 1600.53 3653 1582.2 3696.11 1527.2 3706.97 1508.87 3750.82 1453.87 3761.88 1435.54 3806.47 1380.54 3817.7 1366.79 3828.98 1348.46 3851.64 1320.96 3857.96 1311.79 3857.96 1.00003Z" fill="#BD3A49" fill-rule="evenodd"/>
</g></svg>