<svg width="3859" height="2729" xmlns="http://www.w3.org/2000/svg" xmlns:xlink="http://www.w3.org/1999/xlink" xml:space="preserve" overflow="hidden"><defs><clipPath id="clip0"><rect x="0" y="-1" width="3859" height="2729"/></clipPath></defs><g clip-path="url(#clip0)" transform="matrix(1 0 0 1 0 1)"><path d="M127.887 2728 171.891 2597.35 223.917 2449.74 278.464 2303.27 335.303 2157.72 394.204 2013.09 455.627 1869.37 519.112 1727.03 584.889 1585.38 652.729 1445.1 722.861 1305.74 795.284 1167.75 869.771 1030.68 946.319 894.99 1024.93 760.672 1105.83 627.27 1188.8 495.474 1273.6 364.823 1360.69 235.547 1449.85 107.647 1528-1.00003 308.259-1.00003 298.174 15.7325 277.547 50.3435 257.379 84.9545 237.669 119.566 218.417 153.947 199.623 188.329 181.517 222.711 163.641 257.093 146.222 291.245 129.262 325.627 112.761 359.551 96.7176 393.703 81.1327 427.627 66.0063 461.55 51.109 495.474 36.8994 529.168 22.9189 562.862 9.39673 596.556 0 620.394 0 2728 127.887 2728Z" fill="#BC3A49" fill-rule="evenodd"/><path d="M1535.64 2728 1589.25 2592.99 1652.48 2441.48 1718.93 2291.35 1787.89 2142.59 1859.83 1995.21 1934.52 1849.2 2012.19 1704.8 2092.38 1561.77 2175.32 1420.57 2261.01 1280.75 2349.22 1142.77 2440.18 1006.39 2533.66 871.611 2629.66 738.897 2728.41 607.787 2829.68 478.512 2933.24 351.299 3039.55 225.92 3148.15 102.604 3242.77-1.00003 2055.73-1.00003 1973.02 106.5 1878.62 233.255 1786.29 361.614 1696.25 491.348 1608.27 622.686 1522.35 755.4 1438.95 889.489 1357.38 1024.95 1278.34 1161.56 1201.59 1299.78 1126.89 1439.14 1054.72 1579.65 984.843 1721.53 917.255 1864.56 851.957 2008.5 789.179 2153.82 728.922 2300.29 670.956 2447.67 615.51 2596.2 569 2728 1535.64 2728Z" fill="#EDEDED" fill-rule="evenodd"/><path d="M2975.93 2728 3004.35 2668.18 3042.41 2590.93 3081.38 2514.37 3121.27 2438.05 3161.85 2362.41 3203.57 2287.23 3245.98 2212.5 3289.31 2138.24 3333.56 2064.66 3378.72 1991.31 3424.57 1918.65 3471.34 1846.68 3519.02 1774.94 3567.39 1704.11 3616.68 1633.51 3666.66 1563.6 3717.78 1494.38 3769.59 1425.62 3822.09 1357.54 3859 1311.01 3859-1.00003 3820.71-1.00003 3717.32 100.999 3598.8 222.711 3483.03 346.486 3370.24 472.552 3260.2 600.453 3153.14 730.187 3049.29 861.984 2948.19 995.844 2850.07 1131.54 2754.93 1269.29 2662.77 1408.65 2573.59 1550.08 2487.39 1693.34 2404.41 1838.2 2324.4 1985.12 2247.37 2133.65 2173.55 2284.25 2102.71 2436.21 2035.08 2590.24 1978 2728 2975.93 2728Z" fill="#EDEDED" fill-rule="evenodd"/><path d="M3859 2728 3859 1998 3850.06 2011.06 3824.84 2048.19 3800.07 2085.32 3775.54 2122.91 3751.23 2160.5 3727.16 2198.09 3703.54 2236.14 3680.15 2274.19 3657 2312.46 3634.3 2350.74 3611.83 2389.47 3589.59 2428.21 3567.57 2467.17 3545.79 2506.36 3524.47 2545.79 3503.14 2585.21 3482.28 2625.09 3461.64 2664.97 3441.24 2705.31 3430 2728 3859 2728Z" fill="#BC3A49" fill-rule="evenodd"/></g></svg>