<?xml version="1.0" encoding="utf-8"?>
<!-- Generator: Adobe Illustrator 23.0.0, SVG Export Plug-In . SVG Version: 6.00 Build 0)  -->
<svg version="1.1" id="Layer_1" xmlns="http://www.w3.org/2000/svg" xmlns:xlink="http://www.w3.org/1999/xlink" x="0px" y="0px"
	 viewBox="0 0 60.2 62.2" style="enable-background:new 0 0 50.2 60.2;" xml:space="preserve">
<style type="text/css">
	.st0{fill:#EDEDED;}
</style>
<g>
	<g>
		<path class="st0" d="M19.4,1.8c-1.9,0-7.9,0-7.9,0c-5.5,0-9.9,4.4-9.9,9.9c0,0,0,8.5,0,11.1c0,0.7,0.6,0.9,0.9,0.3
			c4.6-9.8,11.6-16,17.3-20.3C20.3,2.5,20,1.8,19.4,1.8z"/>
		<path class="st0" d="M48.5,1.8c-4,0-12.6,0-16.7,0c-1.2,0-2.5,0.3-3.2,0.7C-1.1,19.3,0.9,46,1.5,50.6C1.6,51,1.8,50.9,2,50.7
			C13,30.9,29.3,14.3,49,3C49.7,2.6,49.3,1.8,48.5,1.8z"/>
		<path class="st0" d="M56.7,4.9C34.5,16.4,16,34.6,4.6,57c-0.2,0.3-0.3,1.2,0.2,1.6c1.8,1.6,4.1,2.6,6.7,2.6c0,0,2.1,0,2.8,0
			c0.9,0,1.4-0.7,1.6-1c10.1-18.7,25.5-34,44.1-44.1c0.6-0.3,1-1,1-1.7c0-0.6,0-2.8,0-2.8c0-2.6-1.1-4.9-2.6-6.7
			C58.1,4.6,57.3,4.5,56.7,4.9z"/>
		<path class="st0" d="M23.1,61.3c2.5,0,7.8,0,10.5,0c0.8,0,1.6-0.5,1.9-0.9c6.6-9.7,15-18.1,24.7-24.6c0.5-0.4,0.9-0.8,0.9-1.5
			c0-2.8,0-8.2,0-11.1c0-0.7-0.8-1.1-1.3-0.8C44,31.4,31.3,44.2,22.2,59.9C22,60.3,22.2,61.3,23.1,61.3z"/>
		<path class="st0" d="M42.9,61.3c1.3,0,8.2,0,8.2,0c5.5,0,9.9-4.4,9.9-9.9c0,0,0-7.2,0-8.2c0-0.6-1-1-1.5-0.6
			c-6.9,5-12.5,10.7-17.5,17.6C41.8,60.7,42.3,61.3,42.9,61.3z"/>
	</g>
</g>
</svg>
