<?xml version="1.0" encoding="utf-8"?>
<!-- Generator: Adobe Illustrator 23.0.0, SVG Export Plug-In . SVG Version: 6.00 Build 0)  -->
<svg version="1.1" id="Layer_1" xmlns="http://www.w3.org/2000/svg" xmlns:xlink="http://www.w3.org/1999/xlink" x="0px" y="0px"
	 viewBox="0 0 310.2 62.2" style="enable-background:new 0 0 310.2 62.2;" xml:space="preserve">
<style type="text/css">
	.st0{fill:#B83E42;}
	.st1{fill:#6C6252;}
	.st2{fill:#E08223;}
</style>
<g>
	<g>
		<path class="st0" d="M83,19.5v23.7h-7V19.5H83z"/>
		<path class="st0" d="M92.2,19.5l10,13.2V19.5h6.4v23.7h-6L92.6,30v13.2h-6.4V19.5H92.2z"/>
		<path class="st0" d="M130.8,19.5v5.6h-6.9v18.1h-7.1V25.1H110v-5.6H130.8z"/>
		<path class="st0" d="M151.5,19.5v5.4h-12.3v3.7h11.2v5.4h-11.2v3.7h12.7v5.4h-19.7V19.5H151.5z"/>
		<path class="st0" d="M169.8,30.9h6v9.5c-2.6,1.8-6.8,3-10.1,3c-7.3,0-12.7-5.2-12.7-12.1c0-6.9,5.6-12.1,13.2-12.1
			c3.6,0,7.5,1.4,10,3.6l-4,4.8c-1.6-1.6-4-2.6-6-2.6c-3.4,0-6,2.7-6,6.2c0,3.6,2.6,6.2,6,6.2c1,0,2.3-0.3,3.6-0.9V30.9z"/>
		<path class="st0" d="M192.4,43.2l-3.1-6.4h-3.7v6.4h-7V19.5h11c6.3,0,10,3,10,8.4c0,3.5-1.4,6.1-4,7.5l4.8,7.7H192.4z M185.5,31.4
			h4c2.1,0,3.3-1.1,3.3-3.3c0-2.1-1.2-3.2-3.3-3.2h-4V31.4z"/>
		<path class="st0" d="M218.1,39.4h-9.6l-1.4,3.8h-7.2L210,19.5h7.2l9.8,23.7h-7.5L218.1,39.4z M216.2,34.3l-2.8-7.7l-2.9,7.7H216.2
			z"/>
		<path class="st0" d="M238.7,25.2c-3.2,0-5.6,2.6-5.6,6.1c0,3.5,2.4,6.1,5.6,6.1c1.8,0,4-1.1,5.6-2.7l4.1,4.3
			c-2.6,2.8-6.5,4.6-10,4.6c-7.2,0-12.5-5.2-12.5-12.2c0-6.9,5.4-12,12.7-12c3.6,0,7.4,1.6,9.8,4.2l-4.1,4.8
			C242.8,26.4,240.6,25.2,238.7,25.2z"/>
		<path class="st0" d="M256.7,19.5v23.7h-7V19.5H256.7z"/>
		<path class="st0" d="M284.2,31.4c0,7-5.5,12.2-12.9,12.2c-7.4,0-12.9-5.2-12.9-12.2c0-7,5.5-12,12.9-12
			C278.8,19.3,284.2,24.4,284.2,31.4z M265.6,31.4c0,3.6,2.7,6.2,5.8,6.2c3.1,0,5.6-2.7,5.6-6.2c0-3.6-2.5-6.2-5.6-6.2
			C268.3,25.2,265.6,27.8,265.6,31.4z M277.3,13.7l-4.5,4.1h-5l3.6-6.1L277.3,13.7z"/>
		<path class="st0" d="M292.1,19.5l10,13.2V19.5h6.4v23.7h-6l-10-13.2v13.2H286V19.5H292.1z"/>
	</g>
	<g>
		<path class="st1" d="M82,59.8h-3.6l-0.6,1.5H76l3.4-7.8h1.8l3.3,7.8h-1.9L82,59.8z M81.5,58.4l-1.2-3l-1.2,3H81.5z"/>
		<path class="st1" d="M99.9,53.5l0,1.5h-3.8v1.9h3.5v1.5h-3.5v2.9h-1.8v-7.8H99.9z"/>
		<path class="st1" d="M114.8,59.8h-3.6l-0.6,1.5h-1.8l3.4-7.8h1.8l3.3,7.8h-1.9L114.8,59.8z M114.2,58.4l-1.2-3l-1.2,3H114.2z"/>
		<path class="st1" d="M133.5,56.2c0,1.8-1.1,2.9-3.1,2.9h-1.5v2.2h-1.8v-7.8h3.3C132.4,53.5,133.5,54.5,133.5,56.2z M131.9,56.3
			c0-0.9-0.6-1.3-1.5-1.3h-1.5v2.6h1.5C131.3,57.6,131.9,57.2,131.9,56.3z"/>
	</g>
	<g>
		<path class="st2" d="M19.4,1.8c-1.9,0-7.9,0-7.9,0c-5.5,0-9.9,4.4-9.9,9.9c0,0,0,8.5,0,11.1c0,0.7,0.6,0.9,0.9,0.3
			c4.6-9.8,11.6-16,17.3-20.3C20.3,2.5,20,1.8,19.4,1.8z"/>
		<path class="st0" d="M48.5,1.8c-4,0-12.6,0-16.7,0c-1.2,0-2.5,0.3-3.2,0.7C-1.1,19.3,0.9,46,1.5,50.6C1.6,51,1.8,50.9,2,50.7
			C13,30.9,29.3,14.3,49,3C49.7,2.6,49.3,1.8,48.5,1.8z"/>
		<path class="st2" d="M56.7,4.9C34.5,16.4,16,34.6,4.6,57c-0.2,0.3-0.3,1.2,0.2,1.6c1.8,1.6,4.1,2.6,6.7,2.6c0,0,2.1,0,2.8,0
			c0.9,0,1.4-0.7,1.6-1c10.1-18.7,25.5-34,44.1-44.1c0.6-0.3,1-1,1-1.7c0-0.6,0-2.8,0-2.8c0-2.6-1.1-4.9-2.6-6.7
			C58.1,4.6,57.3,4.5,56.7,4.9z"/>
		<path class="st2" d="M23.1,61.3c2.5,0,7.8,0,10.5,0c0.8,0,1.6-0.5,1.9-0.9c6.6-9.7,15-18.1,24.7-24.6c0.5-0.4,0.9-0.8,0.9-1.5
			c0-2.8,0-8.2,0-11.1c0-0.7-0.8-1.1-1.3-0.8C44,31.4,31.3,44.2,22.2,59.9C22,60.3,22.2,61.3,23.1,61.3z"/>
		<path class="st2" d="M42.9,61.3c1.3,0,8.2,0,8.2,0c5.5,0,9.9-4.4,9.9-9.9c0,0,0-7.2,0-8.2c0-0.6-1-1-1.5-0.6
			c-6.9,5-12.5,10.7-17.5,17.6C41.8,60.7,42.3,61.3,42.9,61.3z"/>
	</g>
</g>
</svg>
